<svg width="6" height="14" viewBox="0 0 6 14" fill="none" xmlns="http://www.w3.org/2000/svg">
<path d="M2.86742 4H4.86515L2.66765 14H0.669922L2.86742 4ZM4.54551 0C4.34795 0 4.15483 0.0586491 3.99057 0.16853C3.82631 0.278412 3.69828 0.434591 3.62268 0.617317C3.54708 0.800043 3.5273 1.00111 3.56584 1.19509C3.60438 1.38907 3.69951 1.56725 3.83921 1.70711C3.9789 1.84696 4.15688 1.9422 4.35064 1.98079C4.5444 2.01937 4.74524 1.99957 4.92776 1.92388C5.11028 1.84819 5.26628 1.72002 5.37603 1.55557C5.48579 1.39112 5.54437 1.19778 5.54437 1C5.54437 0.734784 5.43914 0.48043 5.25181 0.292893C5.06449 0.105357 4.81042 0 4.54551 0Z" fill="#344563" fill-opacity="0.7"/>
</svg>
