<svg width="11" height="14" viewBox="0 0 11 14" fill="none" xmlns="http://www.w3.org/2000/svg">
<path d="M8.59022 6.8C9.07929 6.50184 9.49203 6.09342 9.79551 5.60729C10.099 5.12116 10.2848 4.57077 10.3382 4C10.3475 3.48388 10.2551 2.971 10.0663 2.49063C9.87758 2.01027 9.59614 1.57184 9.2381 1.20039C8.88005 0.828938 8.45242 0.531741 7.97963 0.325776C7.50684 0.119811 6.99815 0.00911107 6.48262 0H0V14H6.99204C7.48263 13.9948 7.96739 13.8929 8.41864 13.7001C8.86989 13.5073 9.27878 13.2274 9.62197 12.8764C9.96516 12.5253 10.2359 12.1101 10.4188 11.6543C10.6017 11.1985 10.6931 10.7112 10.6878 10.22V10.1C10.6882 9.40711 10.491 8.72852 10.1194 8.14395C9.74784 7.55939 9.21733 7.09315 8.59022 6.8ZM1.99773 2H6.19295C6.61864 1.98681 7.03817 2.10428 7.39526 2.33665C7.75234 2.56902 8.0299 2.90517 8.19068 3.3C8.35336 3.82779 8.30075 4.39859 8.04433 4.88765C7.78791 5.37672 7.34853 5.74428 6.82223 5.91C6.61785 5.96996 6.40593 6.00027 6.19295 6H1.99773V2ZM6.59249 12H1.99773V8H6.59249C7.01818 7.98681 7.43772 8.10428 7.7948 8.33665C8.15189 8.56902 8.42944 8.90517 8.59022 9.3C8.75291 9.82779 8.70029 10.3986 8.44387 10.8877C8.18745 11.3767 7.74808 11.7443 7.22178 11.91C7.01739 11.97 6.80548 12.0003 6.59249 12Z" fill="#344563" fill-opacity="0.7"/>
</svg>
