<svg width="15" height="17" viewBox="0 0 15 17" fill="none" xmlns="http://www.w3.org/2000/svg">
<path d="M14.51 15V17H0.525879V15H14.51ZM11.5134 8.215C11.4805 8.87498 11.2848 9.51653 10.9438 10.0823C10.6027 10.6481 10.127 11.1205 9.55912 11.4572C8.99121 11.794 8.34882 11.9847 7.68934 12.0122C7.02985 12.0397 6.37383 11.9033 5.7799 11.615C5.09532 11.3185 4.51474 10.8241 4.11256 10.1952C3.71038 9.56633 3.50491 8.83154 3.52247 8.085V0.00500011H1.52474V8.215C1.55853 9.15641 1.81327 10.0766 2.26831 10.9012C2.72336 11.7257 3.36594 12.4314 4.14403 12.9611C4.92212 13.4908 5.81386 13.8296 6.74707 13.9502C7.68028 14.0707 8.62873 13.9696 9.51565 13.655C10.6954 13.2613 11.719 12.5012 12.4376 11.485C13.1561 10.4689 13.5322 9.24981 13.5111 8.005V0.00500011H11.5134V8.215ZM11.5134 0H13.5111H11.5134ZM3.52247 0H1.52474H3.52247Z" fill="#344563" fill-opacity="0.7"/>
</svg>
