<svg width="21" height="16" viewBox="0 0 21 16" fill="none" xmlns="http://www.w3.org/2000/svg">
<path d="M12.2872 7L16.0829 12H4.09653L7.09311 8.1L9.19073 10.8L12.0874 7H12.2872ZM6.59368 7C7.39277 7 8.09198 6.3 8.09198 5.5C8.09198 4.7 7.39277 4 6.59368 4C5.79459 4 5.09539 4.7 5.09539 5.5C5.09539 6.3 5.79459 7 6.59368 7ZM20.0783 2V14C20.0783 15.1 19.1794 16 18.0806 16H2.0988C1.00005 16 0.101074 15.1 0.101074 14V2C0.101074 0.9 1.00005 0 2.0988 0H18.0806C19.1794 0 20.0783 0.9 20.0783 2ZM18.0806 4.8V2H2.0988V14H18.0806V4.8Z" fill="#344563" fill-opacity="0.7"/>
</svg>
