<svg width="19" height="18" viewBox="0 0 19 18" fill="none" xmlns="http://www.w3.org/2000/svg">
<path d="M9.04084 1.00278e-05C7.26321 0.00178968 5.52602 0.531143 4.04884 1.52116C2.57167 2.51117 1.42083 3.9174 0.74179 5.56209C0.0627546 7.20678 -0.113991 9.0161 0.233896 10.7613C0.581783 12.5066 1.43868 14.1094 2.69628 15.3671C3.95388 16.6249 5.55572 17.4812 7.29932 17.8277C9.04291 18.1743 10.85 17.9955 12.4921 17.3141C14.1343 16.6326 15.5378 15.4791 16.5252 13.9992C17.5126 12.5194 18.0396 10.7797 18.0396 9.00001C18.0402 7.81719 17.8077 6.64587 17.3556 5.55309C16.9035 4.46031 16.2405 3.46752 15.4047 2.63156C14.5688 1.7956 13.5765 1.13288 12.4845 0.681321C11.3925 0.229765 10.2223 -0.00175601 9.04084 1.00278e-05ZM9.04983 16C7.66693 16 6.31509 15.5895 5.16526 14.8203C4.01542 14.0511 3.11924 12.9579 2.59003 11.6788C2.06081 10.3997 1.92235 8.99224 2.19214 7.63438C2.46193 6.27651 3.12785 5.02923 4.10571 4.05026C5.08356 3.07129 6.32943 2.40461 7.68575 2.13451C9.04207 1.86442 10.4479 2.00304 11.7256 2.53285C13.0032 3.06267 14.0952 3.95987 14.8635 5.11102C15.6318 6.26216 16.0419 7.61554 16.0419 9.00001C16.0421 9.91933 15.8614 10.8297 15.5101 11.6791C15.1588 12.5285 14.6438 13.3003 13.9945 13.9503C13.3452 14.6004 12.5743 15.116 11.7259 15.4677C10.8774 15.8194 9.96811 16.0003 9.04983 16ZM12.1513 10.8H13.6526C13.2914 11.728 12.6588 12.5252 11.8375 13.0873C11.0163 13.6493 10.0446 13.95 9.04983 13.95C8.05501 13.95 7.08338 13.6493 6.26211 13.0873C5.44085 12.5252 4.80823 11.728 4.44707 10.8H5.94836C6.26119 11.3469 6.71275 11.8014 7.25737 12.1175C7.80198 12.4335 8.42032 12.6 9.04983 12.6C9.67934 12.6 10.2977 12.4335 10.8423 12.1175C11.3869 11.8014 11.8385 11.3469 12.1513 10.8ZM4.55494 6.75001C4.55494 6.48301 4.63403 6.222 4.7822 5.99999C4.93037 5.77798 5.14098 5.60495 5.38738 5.50277C5.63377 5.40059 5.90491 5.37386 6.16648 5.42595C6.42806 5.47804 6.66833 5.60661 6.85692 5.79542C7.0455 5.98422 7.17393 6.22476 7.22596 6.48664C7.27799 6.74851 7.25129 7.01995 7.14923 7.26663C7.04717 7.51331 6.87433 7.72415 6.65258 7.87249C6.43082 8.02083 6.17011 8.10001 5.90341 8.10001C5.54577 8.10001 5.20279 7.95778 4.9499 7.7046C4.69701 7.45143 4.55494 7.10805 4.55494 6.75001ZM10.8478 6.75001C10.8478 6.48301 10.9269 6.222 11.075 5.99999C11.2232 5.77798 11.4338 5.60495 11.6802 5.50277C11.9266 5.40059 12.1977 5.37386 12.4593 5.42595C12.7209 5.47804 12.9612 5.60661 13.1498 5.79542C13.3383 5.98422 13.4668 6.22476 13.5188 6.48664C13.5708 6.74851 13.5441 7.01995 13.4421 7.26663C13.34 7.51331 13.1672 7.72415 12.9454 7.87249C12.7237 8.02083 12.4629 8.10001 12.1962 8.10001C11.8386 8.10001 11.4956 7.95778 11.2427 7.7046C10.9899 7.45143 10.8478 7.10805 10.8478 6.75001Z" fill="#344563" fill-opacity="0.7"/>
</svg>
