<svg width="19" height="14" viewBox="0 0 19 14" fill="none" xmlns="http://www.w3.org/2000/svg">
<path d="M14.0056 8H8.01239V14H6.01466V8H0.0214844V6H6.01466V0H8.01239V6H14.0056V8ZM18.9999 12.5C18.9999 12.7967 18.912 13.0867 18.7474 13.3334C18.5827 13.58 18.3487 13.7723 18.075 13.8858C17.8012 13.9993 17.4999 14.0291 17.2093 13.9712C16.9186 13.9133 16.6517 13.7704 16.4421 13.5607C16.2326 13.3509 16.0899 13.0836 16.0321 12.7926C15.9743 12.5017 16.0039 12.2001 16.1173 11.926C16.2307 11.6519 16.4228 11.4176 16.6692 11.2528C16.9156 11.088 17.2052 11 17.5016 11C17.899 11 18.2801 11.158 18.561 11.4393C18.842 11.7206 18.9999 12.1022 18.9999 12.5ZM18.9999 8.5C18.9999 8.79667 18.912 9.08668 18.7474 9.33335C18.5827 9.58003 18.3487 9.77229 18.075 9.88582C17.8012 9.99935 17.4999 10.0291 17.2093 9.97118C16.9186 9.9133 16.6517 9.77044 16.4421 9.56066C16.2326 9.35088 16.0899 9.08361 16.0321 8.79264C15.9743 8.50166 16.0039 8.20006 16.1173 7.92597C16.2307 7.65189 16.4228 7.41762 16.6692 7.2528C16.9156 7.08797 17.2052 7 17.5016 7C17.899 7 18.2801 7.15804 18.561 7.43934C18.842 7.72064 18.9999 8.10218 18.9999 8.5ZM18.9999 4.5C18.9999 4.79667 18.912 5.08668 18.7474 5.33335C18.5827 5.58003 18.3487 5.77229 18.075 5.88582C17.8012 5.99935 17.4999 6.02906 17.2093 5.97118C16.9186 5.9133 16.6517 5.77044 16.4421 5.56066C16.2326 5.35088 16.0899 5.08361 16.0321 4.79264C15.9743 4.50166 16.0039 4.20006 16.1173 3.92597C16.2307 3.65189 16.4228 3.41762 16.6692 3.2528C16.9156 3.08797 17.2052 3 17.5016 3C17.899 3 18.2801 3.15804 18.561 3.43934C18.842 3.72064 18.9999 4.10218 18.9999 4.5Z" fill="#344563" fill-opacity="0.7"/>
</svg>
