<svg width="18" height="14" viewBox="0 0 18 14" fill="none" xmlns="http://www.w3.org/2000/svg">
<path d="M10.4803 14H12.4781L7.48374 0H5.48601L0.491699 14H2.48943L3.88783 10H8.98203L10.4803 14ZM4.58704 8L6.48488 2.8L8.38271 8H4.58704ZM17.3725 12.5C17.3725 12.7967 17.2846 13.0867 17.12 13.3334C16.9553 13.58 16.7213 13.7723 16.4476 13.8858C16.1738 13.9993 15.8725 14.0291 15.5819 13.9712C15.2912 13.9133 15.0243 13.7704 14.8147 13.5607C14.6052 13.3509 14.4625 13.0836 14.4047 12.7926C14.3469 12.5017 14.3765 12.2001 14.4899 11.926C14.6033 11.6519 14.7954 11.4176 15.0418 11.2528C15.2882 11.088 15.5779 11 15.8742 11C16.2716 11 16.6527 11.158 16.9336 11.4393C17.2146 11.7206 17.3725 12.1022 17.3725 12.5ZM17.3725 8.5C17.3725 8.79667 17.2846 9.08668 17.12 9.33335C16.9553 9.58003 16.7213 9.77229 16.4476 9.88582C16.1738 9.99935 15.8725 10.0291 15.5819 9.97118C15.2912 9.9133 15.0243 9.77044 14.8147 9.56066C14.6052 9.35088 14.4625 9.08361 14.4047 8.79264C14.3469 8.50166 14.3765 8.20006 14.4899 7.92597C14.6033 7.65189 14.7954 7.41762 15.0418 7.2528C15.2882 7.08797 15.5779 7 15.8742 7C16.2716 7 16.6527 7.15804 16.9336 7.43934C17.2146 7.72064 17.3725 8.10218 17.3725 8.5ZM17.3725 4.5C17.3725 4.79667 17.2846 5.08668 17.12 5.33335C16.9553 5.58003 16.7213 5.77229 16.4476 5.88582C16.1738 5.99935 15.8725 6.02906 15.5819 5.97118C15.2912 5.9133 15.0243 5.77044 14.8147 5.56066C14.6052 5.35088 14.4625 5.08361 14.4047 4.79264C14.3469 4.50166 14.3765 4.20006 14.4899 3.92597C14.6033 3.65189 14.7954 3.41762 15.0418 3.2528C15.2882 3.08797 15.5779 3 15.8742 3C16.2716 3 16.6527 3.15804 16.9336 3.43934C17.2146 3.72064 17.3725 4.10218 17.3725 4.5Z" fill="#344563" fill-opacity="0.7"/>
</svg>
