<svg width="18" height="14" viewBox="0 0 18 14" fill="none" xmlns="http://www.w3.org/2000/svg">
<path d="M4.38493 0.000538024C3.44625 -0.0146638 2.53073 0.292681 1.79096 0.871341C1.05119 1.45 0.531865 2.26502 0.319559 3.18054C0.105679 4.21952 0.312805 5.30101 0.895373 6.18711C1.47794 7.07321 2.38824 7.69134 3.42602 7.90554L3.45299 7.91054C3.7219 7.97047 3.99657 8.00066 4.27206 8.00054V14.0005H6.26979V2.00054H8.26751V14.0005H10.2652V2.00054H12.263V0.000538024H4.38493ZM2.23738 4.00054C2.23738 3.4701 2.44785 2.9614 2.8225 2.58632C3.19714 2.21125 3.70527 2.00054 4.2351 2.00054V6.00054C3.70527 6.00054 3.19714 5.78982 2.8225 5.41475C2.44785 5.03968 2.23738 4.53097 2.23738 4.00054ZM17.1604 12.4915C17.1604 12.7882 17.0725 13.0782 16.9079 13.3249C16.7432 13.5716 16.5092 13.7638 16.2355 13.8774C15.9617 13.9909 15.6604 14.0206 15.3698 13.9627C15.0791 13.9048 14.8122 13.762 14.6026 13.5522C14.3931 13.3424 14.2504 13.0751 14.1926 12.7842C14.1348 12.4932 14.1644 12.1916 14.2778 11.9175C14.3913 11.6434 14.5833 11.4092 14.8297 11.2443C15.0761 11.0795 15.3658 10.9915 15.6621 10.9915C16.0595 10.9915 16.4406 11.1496 16.7215 11.4309C17.0025 11.7122 17.1604 12.0937 17.1604 12.4915ZM17.1604 8.49154C17.1604 8.78821 17.0725 9.07822 16.9079 9.32489C16.7432 9.57157 16.5092 9.76383 16.2355 9.87736C15.9617 9.99089 15.6604 10.0206 15.3698 9.96272C15.0791 9.90484 14.8122 9.76198 14.6026 9.5522C14.3931 9.34242 14.2504 9.07514 14.1926 8.78417C14.1348 8.4932 14.1644 8.1916 14.2778 7.91751C14.3913 7.64342 14.5833 7.40916 14.8297 7.24433C15.0761 7.07951 15.3658 6.99154 15.6621 6.99154C16.0595 6.99154 16.4406 7.14957 16.7215 7.43088C17.0025 7.71218 17.1604 8.09371 17.1604 8.49154ZM17.1604 4.49154C17.1604 4.78821 17.0725 5.07822 16.9079 5.32489C16.7432 5.57157 16.5092 5.76383 16.2355 5.87736C15.9617 5.99089 15.6604 6.02059 15.3698 5.96272C15.0791 5.90484 14.8122 5.76198 14.6026 5.5522C14.3931 5.34242 14.2504 5.07514 14.1926 4.78417C14.1348 4.4932 14.1644 4.1916 14.2778 3.91751C14.3913 3.64342 14.5833 3.40916 14.8297 3.24433C15.0761 3.07951 15.3658 2.99154 15.6621 2.99154C16.0595 2.99154 16.4406 3.14957 16.7215 3.43088C17.0025 3.71218 17.1604 4.09371 17.1604 4.49154Z" fill="#344563" fill-opacity="0.7"/>
</svg>
