<svg width="21" height="10" viewBox="0 0 21 10" fill="none" xmlns="http://www.w3.org/2000/svg">
<path d="M9.13186 10H5.1364C3.81183 10 2.54151 9.47322 1.60489 8.53553C0.668275 7.59785 0.14209 6.32608 0.14209 5C0.14209 3.67392 0.668275 2.40215 1.60489 1.46447C2.54151 0.526784 3.81183 0 5.1364 0H9.13186V2H5.1364C4.34166 2 3.57947 2.31607 3.0175 2.87868C2.45553 3.44129 2.13982 4.20435 2.13982 5C2.13982 5.79565 2.45553 6.55871 3.0175 7.12132C3.57947 7.68393 4.34166 8 5.1364 8H9.13186V10ZM15.125 0H11.1296V2H15.125C15.9198 2 16.682 2.31607 17.2439 2.87868C17.8059 3.44129 18.1216 4.20435 18.1216 5C18.1216 5.79565 17.8059 6.55871 17.2439 7.12132C16.682 7.68393 15.9198 8 15.125 8H11.1296V10H15.125C16.4496 10 17.7199 9.47322 18.6565 8.53553C19.5932 7.59785 20.1193 6.32608 20.1193 5C20.1193 3.67392 19.5932 2.40215 18.6565 1.46447C17.7199 0.526784 16.4496 0 15.125 0ZM14.1262 4H6.13527V6H14.1262V4Z" fill="#344563" fill-opacity="0.7"/>
</svg>
